<svg id="Calque_2" xmlns="http://www.w3.org/2000/svg" viewBox="0 0 2400 2400">
  <!-- Modern iOS-style squircle background in signature green -->
  <rect width="2400" height="2400" rx="533" fill="#00f6ac" />
  
  <!-- Logo shapes scaled down and re-centered for maximum visibility & breathing room -->
  <g transform="translate(384, 384) scale(0.68)">
    <g id="Calque_1-2" data-name="Calque_1">
      <g>
        <path fill="#020202" d="M1823.08,177.04c68.5,29.44,245.16,180.37,289.84,247.79-3.82,4.32-7.84,9.04-12.05,13.59-205.8,222.77-411.63,445.52-617.42,668.3-19.1,20.67-22.54,42.15-10.31,62.32,12.84,21.15,33.6,28.04,61.62,19.15,268.44-85.15,536.84-170.47,805.25-255.72,7.8-2.48,15.67-4.74,25.55-7.73,2,5.99,4.19,11,5.34,16.23,26.06,118.24,33.34,237.71,24.53,358.42-1.28,17.48-7.41,21.7-24.21,21.68-280.44-.38-560.87.01-841.31-.05-151.07-.04-237.13-142.94-166.57-276.54,150.23-284.45,300.67-568.79,451.07-853.15,2.63-4.96,5.82-9.62,8.67-14.29Z" />
        <path fill="#020202" d="M173.97,577.57c67.78-111.1,149.36-206.69,247.67-290.76,18.83,17.2,37.08,33.7,55.14,50.39,207.33,191.66,414.62,383.36,621.95,575.02,25.49,23.56,46.61,27.65,68.1,13.52,21.08-13.86,26.04-34.1,15.9-66.06-85.15-268.48-170.33-536.96-255.48-805.44-1.9-5.99-3.52-12.06-5.88-20.16,6.51-2.08,12.16-4.4,18.03-5.69,118.25-25.93,237.7-33.91,358.44-24.7,16,1.22,19.51,7.34,19.5,22.27-.25,282.39.37,564.78-.02,847.17-.2,147.12-144.63,233.23-274.54,164.53-282.73-149.5-565.44-299.05-848.15-448.6-6.1-3.23-12.07-6.7-20.68-11.5Z" />
        <path fill="#020202" d="M2220.97,1826.22c-40.88,81.08-181.2,243.89-248.75,288.76-40.21-37.16-80.74-74.61-121.26-112.07-184.92-170.94-369.87-341.83-554.66-512.9-14.67-13.58-29.96-23.84-51.11-18.91-29.39,6.86-43.93,34.09-34.11,65.33,27.07,86.13,54.5,172.15,81.83,258.2,58.7,184.82,117.44,369.63,176.11,554.46,1.68,5.3,2.71,10.82,4.58,18.44-13.22,3.01-25.34,6.05-37.57,8.52-111.72,22.54-224.4,28.09-337.96,19.46-14.31-1.09-19.37-5.62-19.36-20.63.29-283.03-.77-566.06.25-849.08.51-141.34,144.89-227.53,270.08-161.71,285.9,150.31,571.19,301.8,856.7,452.86,4.95,2.62,9.59,5.82,15.22,9.26Z" />
        <path fill="#020202" d="M574.32,2223.78c-110.32-67.97-205.77-149.61-289.11-247.8,37.27-40.42,73.38-79.66,109.57-118.82,172.65-186.84,345.33-373.64,517.97-560.49,19.35-20.94,22.39-43.73,8.89-64.05-13.5-20.32-33.87-25.79-62.57-16.68-268.48,85.27-536.95,170.56-805.44,255.81-5.97,1.9-12.05,3.45-19.75,5.63-2.02-6.15-4.2-11.25-5.37-16.56-26.04-118.25-34.06-237.7-24.81-358.46,1.2-15.68,6.71-19.83,22.01-19.81,282.42.25,564.84-.4,847.26-.06,140.84.17,228.87,145,163.48,269.21-150.2,285.28-301.21,570.14-451.94,855.14-2.64,4.99-5.81,9.71-10.18,16.94Z" />
      </g>
    </g>
  </g>
</svg>
